<svg width="17" height="17" viewBox="0 0 17 17" fill="none" xmlns="http://www.w3.org/2000/svg">
<rect x="0.886475" y="0.369995" width="16" height="16" rx="6" fill="#FFA2C0"/>
<path fill-rule="evenodd" clip-rule="evenodd" d="M10.6131 5.83999C10.6131 5.39665 10.9731 5.03665 11.4165 5.03665C11.8598 5.03665 12.2198 5.39665 12.2198 5.83999C12.2198 6.28332 11.8598 6.64332 11.4165 6.64332C10.9731 6.64332 10.6131 6.28332 10.6131 5.83999ZM9.32977 9.28975L10.2931 8.04675L10.2798 8.05342C10.3331 7.98008 10.3431 7.88675 10.3064 7.80342C10.2701 7.72008 10.1898 7.66342 10.1034 7.65675C10.0131 7.64675 9.92343 7.68675 9.86977 7.76008L9.06343 8.80342L8.13977 8.07675C8.0831 8.03342 8.01643 8.01642 7.94977 8.02342C7.88343 8.03342 7.82343 8.06975 7.7831 8.12308L6.79677 9.40675L6.77643 9.43675C6.71977 9.54308 6.74643 9.67975 6.84643 9.75342C6.8931 9.78342 6.9431 9.80342 6.99977 9.80342C7.07677 9.80675 7.14977 9.76642 7.19643 9.70342L8.0331 8.62642L8.9831 9.34008L9.0131 9.35975C9.11977 9.41642 9.2531 9.39008 9.32977 9.28975ZM10.0364 5.63008C10.0231 5.71342 10.0164 5.79675 10.0164 5.88008C10.0164 6.63008 10.6231 7.23642 11.3698 7.23642C11.4531 7.23642 11.5331 7.22675 11.6164 7.21342V9.90308C11.6164 11.0334 10.9498 11.7034 9.81643 11.7034H7.35343C6.21977 11.7034 5.5531 11.0334 5.5531 9.90308V7.43675C5.5531 6.30342 6.21977 5.63008 7.35343 5.63008H10.0364Z" fill="#242731"/>
</svg>
