<svg width="24" height="25" viewBox="0 0 24 25" fill="none" xmlns="http://www.w3.org/2000/svg">
<path fill-rule="evenodd" clip-rule="evenodd" d="M17.0136 22.1938H8.66579C5.59943 22.1938 3.24703 21.0862 3.91522 16.6285L4.69325 10.5874C5.10515 8.3631 6.52392 7.51184 7.76877 7.51184H17.9473C19.2104 7.51184 20.5468 8.42717 21.0228 10.5874L21.8008 16.6285C22.3683 20.5828 20.08 22.1938 17.0136 22.1938Z" stroke="white" stroke-width="1.5" stroke-linecap="round" stroke-linejoin="round"/>
<path d="M17.151 7.29215C17.151 4.90607 15.2167 2.97178 12.8306 2.97178V2.97178C11.6816 2.96691 10.578 3.41994 9.76381 4.23069C8.94963 5.04145 8.49193 6.14313 8.49194 7.29215V7.29215" stroke="white" stroke-width="1.5" stroke-linecap="round" stroke-linejoin="round"/>
<path d="M15.7962 11.7956H15.7505" stroke="white" stroke-width="1.5" stroke-linecap="round" stroke-linejoin="round"/>
<path d="M9.96566 11.7956H9.91989" stroke="white" stroke-width="1.5" stroke-linecap="round" stroke-linejoin="round"/>
</svg>
