<svg width="28" height="28" viewBox="0 0 28 28" fill="none" xmlns="http://www.w3.org/2000/svg">
<path opacity="0.4" fill-rule="evenodd" clip-rule="evenodd" d="M12.0568 6.00016C8.54687 5.98597 5.28557 7.80711 3.4605 10.8004C1.63543 13.7937 1.51292 17.5224 3.13757 20.6287L3.33789 21.0192C3.50209 21.3264 3.53644 21.6865 3.43329 22.0192C3.14742 22.7784 2.90849 23.5545 2.71784 24.343C2.71784 24.743 2.83231 24.9716 3.26158 24.962C4.0219 24.7941 4.77068 24.5778 5.50332 24.3144C5.81886 24.2275 6.15437 24.2476 6.45725 24.3716C6.73389 24.5049 7.2967 24.8477 7.31578 24.8477C10.9915 26.7805 15.4808 26.2473 18.5998 23.5075C21.7187 20.7677 22.8199 16.3901 21.3676 12.5041C19.9153 8.61817 16.2111 6.03061 12.0568 6.00016V6.00016Z" stroke="white" stroke-width="1.5" stroke-linecap="round" stroke-linejoin="round"/>
<ellipse opacity="0.4" cx="7.28718" cy="16.0001" rx="0.476965" ry="0.47619" stroke="white" stroke-width="1.5" stroke-linecap="round" stroke-linejoin="round"/>
<ellipse opacity="0.4" cx="12.0568" cy="16.0001" rx="0.476965" ry="0.47619" stroke="white" stroke-width="1.5" stroke-linecap="round" stroke-linejoin="round"/>
<ellipse opacity="0.4" cx="16.8265" cy="16.0001" rx="0.476965" ry="0.47619" stroke="white" stroke-width="1.5" stroke-linecap="round" stroke-linejoin="round"/>
<circle cx="20" cy="8" r="5.33333" fill="#FF754C"/>
</svg>
