<svg width="16" height="17" viewBox="0 0 16 17" fill="none" xmlns="http://www.w3.org/2000/svg">
<rect y="0.369995" width="16" height="16" rx="6" fill="#6C5DD3"/>
<path fill-rule="evenodd" clip-rule="evenodd" d="M8.48341 5.99674H9.50675C10.7367 5.99674 11.3367 6.65341 11.3334 8.00007V9.62341C11.3334 10.9101 10.5401 11.7034 9.25008 11.7034H6.74675C5.46341 11.7034 4.66675 10.9101 4.66675 9.62007V7.11674C4.66675 5.73674 5.28008 5.03674 6.49008 5.03674H7.01675C7.32708 5.03341 7.61675 5.17674 7.80675 5.42007L8.10008 5.81007C8.19341 5.92674 8.33341 5.99674 8.48341 5.99674ZM6.45675 9.46674H9.54341C9.68008 9.46674 9.79008 9.3534 9.79008 9.21674C9.79008 9.07674 9.68008 8.96674 9.54341 8.96674H6.45675C6.31675 8.96674 6.20675 9.07674 6.20675 9.21674C6.20675 9.3534 6.31675 9.46674 6.45675 9.46674Z" fill="#242731"/>
</svg>
