<svg width="24" height="25" viewBox="0 0 24 25" fill="none" xmlns="http://www.w3.org/2000/svg">
<path opacity="0.4" fill-rule="evenodd" clip-rule="evenodd" d="M20.8067 7.81731L20.1842 6.73722C19.6577 5.8233 18.4907 5.50802 17.5755 6.03241V6.03241C17.1399 6.28904 16.6201 6.36185 16.1307 6.23478C15.6413 6.10772 15.2226 5.79121 14.9668 5.35507C14.8023 5.07784 14.7139 4.76209 14.7105 4.43973V4.43973C14.7254 3.92292 14.5304 3.4221 14.17 3.05136C13.8096 2.68063 13.3145 2.47156 12.7975 2.47177H11.5435C11.037 2.47177 10.5513 2.67361 10.194 3.03264C9.83669 3.39167 9.63717 3.87829 9.63961 4.38481V4.38481C9.6246 5.43062 8.77248 6.27051 7.72657 6.2704C7.40421 6.26705 7.08846 6.17864 6.81123 6.01411V6.01411C5.89606 5.48971 4.72911 5.80499 4.20254 6.71891L3.53435 7.81731C3.00841 8.73009 3.3194 9.8963 4.23 10.426V10.426C4.8219 10.7677 5.18653 11.3993 5.18653 12.0828C5.18653 12.7662 4.8219 13.3978 4.23 13.7395V13.7395C3.32056 14.2656 3.00923 15.429 3.53435 16.339V16.339L4.16593 17.4283C4.41265 17.8735 4.8266 18.202 5.31619 18.3411C5.80578 18.4803 6.33064 18.4186 6.77462 18.1697V18.1697C7.21108 17.915 7.73119 17.8453 8.21934 17.9759C8.70749 18.1065 9.12324 18.4267 9.37416 18.8654C9.5387 19.1426 9.62711 19.4583 9.63046 19.7807V19.7807C9.63046 20.8372 10.487 21.6937 11.5435 21.6937H12.7975C13.8505 21.6938 14.7055 20.8428 14.7105 19.7899V19.7899C14.7081 19.2817 14.9089 18.7937 15.2682 18.4344C15.6275 18.0751 16.1155 17.8744 16.6236 17.8768C16.9452 17.8854 17.2596 17.9735 17.5389 18.1331V18.1331C18.4517 18.659 19.6179 18.348 20.1476 17.4374V17.4374L20.8067 16.339C21.0618 15.9012 21.1318 15.3797 21.0012 14.8901C20.8706 14.4004 20.5502 13.9831 20.111 13.7304V13.7304C19.6718 13.4777 19.3514 13.0603 19.2208 12.5706C19.0902 12.081 19.1603 11.5595 19.4154 11.1217C19.5812 10.832 19.8214 10.5919 20.111 10.426V10.426C21.0161 9.89659 21.3264 8.73719 20.8067 7.82646V7.82646V7.81731Z" stroke="white" stroke-width="1.5" stroke-linecap="round" stroke-linejoin="round"/>
<circle opacity="0.4" cx="12.175" cy="12.0828" r="2.63616" stroke="white" stroke-width="1.5" stroke-linecap="round" stroke-linejoin="round"/>
</svg>
