<svg width="16" height="16" viewBox="0 0 16 16" fill="none" xmlns="http://www.w3.org/2000/svg">
<rect width="16" height="16" rx="6" fill="#3F8CFF"/>
<path fill-rule="evenodd" clip-rule="evenodd" d="M10.7144 7.50416L10.971 9.50082C11.1614 10.8042 10.4044 11.3342 9.38768 11.3342H6.62435C5.60468 11.3342 4.82435 10.9675 5.03435 9.50082L5.29435 7.50416C5.33435 7.20749 5.47768 6.93082 5.70102 6.72749C5.87135 6.57782 6.09102 6.49749 6.31768 6.49749V6.42082C6.29102 5.80416 6.60802 5.22082 7.14102 4.90416C7.67435 4.58749 8.34102 4.58749 8.87435 4.90416C9.40768 5.22082 9.72102 5.80416 9.69768 6.42082V6.49749C10.1177 6.49749 10.561 6.79082 10.7144 7.50416ZM6.82435 6.42082C6.82435 5.77416 7.35102 5.24749 8.00102 5.24749C8.65435 5.24749 9.18102 5.77416 9.18102 6.42082V6.49449H6.82435V6.42082ZM6.73435 7.86416C6.73435 8.02416 6.86768 8.15749 7.03102 8.15749C7.19435 8.15749 7.32435 8.02416 7.32435 7.86416C7.32435 7.70082 7.19435 7.57082 7.03102 7.57082C6.86768 7.57082 6.73435 7.70082 6.73435 7.86416ZM8.96435 8.15749C9.04102 8.15749 9.11768 8.12749 9.17102 8.07082C9.22768 8.01749 9.25768 7.94082 9.25768 7.86416C9.25768 7.70082 9.12435 7.57082 8.96435 7.57082C8.80135 7.57082 8.66768 7.70082 8.66768 7.86416C8.66768 8.02416 8.80135 8.15749 8.96435 8.15749Z" fill="#242731"/>
</svg>
