<svg width="20" height="21" viewBox="0 0 20 21" fill="none" xmlns="http://www.w3.org/2000/svg">
<path fill-rule="evenodd" clip-rule="evenodd" d="M14.0136 20.1938H5.66579C2.59943 20.1938 0.24703 19.0862 0.915222 14.6285L1.69325 8.58736C2.10515 6.3631 3.52392 5.51184 4.76877 5.51184H14.9473C16.2104 5.51184 17.5468 6.42717 18.0228 8.58736L18.8008 14.6285C19.3683 18.5828 17.08 20.1938 14.0136 20.1938Z" stroke="white" stroke-opacity="0.3" stroke-width="1.5" stroke-linecap="round" stroke-linejoin="round"/>
<path d="M14.151 5.29215C14.151 2.90607 12.2167 0.97178 9.83062 0.97178V0.97178C8.68162 0.966911 7.578 1.41994 6.76381 2.23069C5.94963 3.04145 5.49193 4.14313 5.49194 5.29215H5.49194" stroke="white" stroke-opacity="0.3" stroke-width="1.5" stroke-linecap="round" stroke-linejoin="round"/>
<path d="M12.7962 9.79556H12.7505" stroke="white" stroke-opacity="0.3" stroke-width="1.5" stroke-linecap="round" stroke-linejoin="round"/>
<path d="M6.96566 9.79556H6.91989" stroke="white" stroke-opacity="0.3" stroke-width="1.5" stroke-linecap="round" stroke-linejoin="round"/>
</svg>
